<?xml version="1.0" encoding="UTF-8" standalone="no"?>
<svg width="80px" height="80px" viewBox="0 0 80 80" version="1.1" xmlns="http://www.w3.org/2000/svg" xmlns:xlink="http://www.w3.org/1999/xlink">
    <!-- Generator: Sketch 39.1 (31720) - http://www.bohemiancoding.com/sketch -->
    <title>zendesk</title>
    <desc>Created with Sketch.</desc>
    <defs></defs>
    <g id="icons" stroke="none" stroke-width="1" fill="none" fill-rule="evenodd">
        <g id="zendesk" fill="#85B017">
            <path d="M59.6982543,50.8053694 C57.2478235,50.8053694 54.8229181,50.4006108 52.7735995,49.5838005 C49.0286704,52.962259 45.0011395,55.3269976 42.9700533,56.4264096 C45.9072884,61.0866038 50.5820685,64.6692648 56.3562605,66.1077989 C58.1412097,66.5563152 59.9316286,66.7641643 61.6928757,66.7641643 C65.6401841,66.7641643 69.4398104,65.6829846 72.6687634,63.9436164 C73.1446283,62.0985004 73.3834724,60.204157 73.3834724,58.2842883 C73.3834724,54.7599708 72.5393136,51.1955422 70.7908291,47.8973062 C67.2792744,49.8664023 63.4577693,50.8053694 59.6982543,50.8053694 Z M66.2145039,20.0947628 C65.5490223,24.5270523 63.6309768,28.4707143 60.941702,31.4043028 C61.0839145,32.1846483 61.1805461,33.0361001 61.1805461,33.9313095 C61.1696066,39.116596 58.4912713,43.6272847 55.1474543,47.2591732 C56.1064771,47.3758603 57.0709695,47.4414969 58.0299923,47.4414969 C62.7941109,47.4414969 67.5983409,45.9136241 71.6623365,42.7484844 C76.3571722,39.0655454 79.1831898,33.8693195 80,28.5728155 C76.8366835,24.4140116 72.1910753,21.4275491 67.014905,20.1294043 C66.7468891,20.0710607 66.5025753,19.9653129 66.2290897,19.9179087 L66.2145039,20.0947628 Z M56.3343817,1 C51.0524636,1 46.426911,2.87793427 42.2279958,6.67391403 C46.2372943,10.9366425 47.6794749,16.3443639 47.6794749,21.7484389 C47.6794749,22.1841925 47.6630658,22.6144765 47.6539496,23.0356443 C48.556452,22.8059164 49.4698938,22.6983454 50.3687497,22.6983454 L50.6057705,22.6983454 C54.0571585,22.7658052 57.5322485,24.4814714 59.5250467,27.7104244 C61.5251379,24.3702539 62.6883632,20.4776426 62.6883632,16.3042527 C62.6883632,10.3313278 60.3327408,4.91995989 56.6534482,1 L56.3343817,1 Z M16.297917,16.2331465 C16.297917,16.3133689 16.297917,16.3844751 16.2669219,16.4300561 C16.5167054,16.4300561 16.7701354,16.4209399 17.0272118,16.4209399 C23.1077077,16.4209399 28.6667578,18.8403756 32.6104198,22.7384566 C35.917772,22.9700077 39.3035234,24.7257851 41.0866493,28.2099913 C42.0420256,26.3375268 43.4623274,24.9719221 44.9646748,24.2699758 C44.9646748,24.0201924 44.973791,23.7631159 44.973791,23.5078627 C44.973791,17.4000182 42.4467843,11.3104061 37.5313369,6.95651579 C33.3050732,3.21158667 28.0577966,1.39564246 22.8323989,1.39564246 C22.502393,1.39564246 22.1887962,1.39564246 22.072109,1.33000593 C18.4639227,5.29554674 16.297917,10.5318839 16.297917,16.2331465 Z M14.0042846,20.373718 C8.11705183,21.4275491 3.19613474,24.7057295 0,29.0085692 C0.867860887,34.3360682 3.68293906,39.3499704 8.23009253,42.8943434 C11.5483842,38.4419983 16.2012854,35.56493 21.010985,34.6405488 C21.010985,34.4162906 21.0000456,34.1628607 21.0000456,33.9240166 C20.9909294,27.8909248 24.739505,24.1532887 29.0332285,23.0502302 C25.7094672,21.1139523 21.895255,20.0291262 17.8914262,20.0291262 C16.606044,20.0291262 15.2969598,20.1385204 14.0042846,20.373718 Z M9.55740918,47.95018 C7.79980856,51.2593555 6.9629427,54.7964356 6.9629427,58.2952277 C6.9629427,60.3846575 7.25648389,62.4540316 7.71229318,64.2918547 C10.9339532,66.0585715 14.5786043,67.0121245 18.3417658,67.0121245 C20.119422,67.0121245 21.9244268,66.7951593 23.740371,66.3502894 C23.1824605,64.3410821 22.9144446,62.333698 22.9144446,60.342723 C22.9144446,55.6059529 24.4149688,51.0606226 27.0787183,47.2956379 C24.5116003,44.5261407 22.3346552,41.2479603 21.4376225,37.5394959 C16.505766,39.370026 12.2065728,42.9417476 9.55740918,47.95018 Z M26.5919139,59.4311044 C26.5919139,62.4394457 27.1899357,65.5006609 28.5208989,68.4251333 C30.9585669,73.8930216 35.3398058,77.871325 40.2716623,79.9498154 C45.2381604,77.802042 49.4334291,73.8602033 51.7635261,68.5801085 C46.1023748,66.2281325 41.9162223,61.8250148 39.7994439,56.7418296 C37.9889694,55.8101554 33.3160126,53.1919869 29.0587538,49.2738502 C27.4488354,52.3988787 26.5919139,55.8812617 26.5919139,59.4311044 Z" id="Combined-Shape"></path>
        </g>
    </g>
</svg>