<?xml version="1.0" encoding="UTF-8" standalone="no"?>
<svg width="80px" height="80px" viewBox="0 0 80 80" version="1.1" xmlns="http://www.w3.org/2000/svg" xmlns:xlink="http://www.w3.org/1999/xlink">
    <!-- Generator: Sketch 3.6 (26304) - http://www.bohemiancoding.com/sketch -->
    <title>franz</title>
    <desc>Created with Sketch.</desc>
    <defs>
        <filter x="-50%" y="-50%" width="200%" height="200%" filterUnits="objectBoundingBox" id="filter-1">
            <feOffset dx="0" dy="0" in="SourceAlpha" result="shadowOffsetOuter1"></feOffset>
            <feGaussianBlur stdDeviation="1" in="shadowOffsetOuter1" result="shadowBlurOuter1"></feGaussianBlur>
            <feColorMatrix values="0 0 0 0 0   0 0 0 0 0   0 0 0 0 0  0 0 0 0.175 0" in="shadowBlurOuter1" type="matrix" result="shadowMatrixOuter1"></feColorMatrix>
            <feMerge>
                <feMergeNode in="shadowMatrixOuter1"></feMergeNode>
                <feMergeNode in="SourceGraphic"></feMergeNode>
            </feMerge>
        </filter>
    </defs>
    <g id="Page-1" stroke="none" stroke-width="1" fill="none" fill-rule="evenodd" filter="url(#filter-1)">
        <g id="franz">
            <g id="Page-1" transform="translate(3.000000, 3.000000)">
                <path d="M73.4065848,37.0595281 C73.4065848,57.1992098 57.0801536,73.525641 36.9404719,73.525641 C16.8007902,73.525641 0.474358974,57.1992098 0.474358974,37.0595281 C0.474358974,16.9198464 16.8007902,0.593415156 36.9404719,0.593415156 C57.0801536,0.593415156 73.4065848,16.9198464 73.4065848,37.0595281" id="Fill-1" fill="#318CC7"></path>
                <path d="M62.3527464,39.2790831 C62.3465728,39.2791781 62.3408038,39.2793405 62.3348169,39.2794267 C62.332339,39.2794295 62.3298567,39.2794309 62.32737,39.2794309 C59.9986846,39.2794309 56.5543492,38.1304719 54.8056948,36.7702885 C54.7521903,36.7286766 54.6979024,36.6853056 54.6428645,36.6402678 C54.2634231,36.3296787 53.8481639,35.9395511 53.4084166,35.5008553 C52.8707543,34.9648946 52.2963524,34.3555812 51.705017,33.7283361 C49.2959352,31.1729089 47.0204906,28.7592789 45.0513816,28.7592789 C43.651602,28.7592789 42.0396616,29.4115462 40.4806944,30.042544 C39.1821794,30.5679965 37.8393862,31.1113742 36.9655941,31.1113742 C36.091802,31.1113742 34.7491426,30.5679965 33.4506275,30.042544 C31.8916604,29.4115462 30.2795862,28.7592789 28.8799403,28.7592789 C26.9106976,28.7592789 24.6351192,31.1730427 22.2261712,33.7284699 C21.7774445,34.2044462 21.3384686,34.6700763 20.9179688,35.1012514 C20.3525077,35.680727 19.8203614,36.1985282 19.3429747,36.5951766 C19.2691806,36.6565066 19.1966443,36.7149525 19.1254934,36.7702885 C18.3335405,37.3863321 17.1936074,37.9590739 15.966991,38.4013546 C14.485596,38.935495 12.8777762,39.2793578 11.6038182,39.2794309 C10.740594,39.2794309 10.3996117,39.1103444 10.3157373,39.058575 C9.72768002,38.6953868 9.15741428,38.5111841 8.62072507,38.5111841 C7.86103961,38.5111841 7.22014279,38.9083502 6.94818637,39.5476418 C6.61295626,40.3358204 6.89213632,41.3039211 7.69476227,42.1374482 C10.0068031,44.5385732 15.0303951,46.0054561 21.6378488,46.2443939 C22.2733005,46.2673828 22.9235047,46.2790248 23.5873981,46.2790248 C23.6412697,46.2790248 23.6950825,46.2787126 23.7488349,46.2780925 C28.6520282,46.2225102 33.0670923,43.6466984 35.5798604,41.234494 C36.09528,40.7398088 36.767613,40.7146599 36.8971034,40.7146599 L36.9012503,40.7141248 L36.9255966,40.7229537 L37.0168284,40.7149274 L37.0340848,40.7146599 C37.1635752,40.7146599 37.8360419,40.7398088 38.3514616,41.234494 C40.8280611,43.6119773 45.1524606,46.1483921 49.9709335,46.2741244 C50.0949204,46.2773946 50.2192345,46.2790515 50.343857,46.2790515 C51.5579356,46.2790515 52.7263249,46.2401662 53.8429037,46.164 C59.6845684,45.7656252 64.1087328,44.3471448 66.2365597,42.1374482 C67.0391857,41.3040549 67.3180982,40.3358204 66.9830018,39.5476418 C66.7110454,38.9083502 66.0701486,38.5111841 65.3105969,38.5111841 C64.7737739,38.5111841 64.203642,38.6953868 63.6155847,39.058575 C63.5325374,39.1098339 63.197428,39.2761075 62.3527592,39.2793819 Z M50.3438302,49.0570068 C49.7022646,49.0570068 49.0592274,49.0202198 48.415789,48.9491874 L48.415789,53.2381529 C48.415789,54.5978013 49.866134,55.3229738 51.860392,55.3229738 C53.8546499,55.3229738 58.3869448,55.685627 60.1998093,52.5129804 C61.1321931,50.8812418 61.7282767,49.0586121 62.0879869,47.5302785 C58.9170793,48.5296816 54.9406028,49.0570068 50.3438302,49.0570068 Z M56.5113552,34.5775277 C57.7599736,35.5488389 60.5080311,36.4674443 62.2335431,36.4999507 C62.0401102,31.9586931 61.8314275,26.8398123 61.8314275,25.137844 C61.8314275,21.9653312 61.9231944,19.1099894 60.9249952,19.1099894 C58.3869582,19.1099894 59.021434,30.1234888 55.8487874,32.8427855 C55.6497362,33.0134773 55.4464043,33.2008905 55.2401294,33.4034198 C55.7196984,33.8871357 56.1596712,34.3039661 56.5113552,34.5775277 Z M12.408638,36.4451848 C14.1053892,36.2300811 16.3320073,35.4238433 17.4199668,34.577608 C17.8532511,34.2405051 18.4204401,33.6858906 19.0311046,33.0562305 C18.9505745,32.9831916 18.8703119,32.9106877 18.7911195,32.8428658 C15.6184729,30.1234353 16.2529487,19.1099359 13.7149117,19.1099359 C12.7168463,19.1099359 12.8084794,21.9652777 12.8084794,25.1379243 C12.8084794,26.8329365 12.601402,31.9177056 12.408638,36.4451848 Z M23.5874382,49.0570068 C19.353185,49.0570068 15.643983,48.6103455 12.6069802,47.7588931 C12.9713724,49.2381327 13.5536775,50.9619057 14.4400441,52.5129804 C16.2530423,55.685627 20.7853373,55.3229738 22.7794614,55.3229738 C24.7737194,55.3229738 26.2240644,54.5978013 26.2240644,53.2381529 L26.2240644,48.8564841 C25.3442526,48.9891849 24.4645746,49.0570068 23.5874382,49.0570068 Z" id="Fill-3" fill="#FEFEFE"></path>
            </g>
        </g>
    </g>
</svg>